<?xml version="1.0" standalone="no"?><!DOCTYPE svg PUBLIC "-//W3C//DTD SVG 1.1//EN" "http://www.w3.org/Graphics/SVG/1.1/DTD/svg11.dtd"><svg t="1562508673313" class="icon" viewBox="0 0 1024 1024" version="1.1" xmlns="http://www.w3.org/2000/svg" p-id="3015" xmlns:xlink="http://www.w3.org/1999/xlink" width="200" height="200"><defs><style type="text/css"></style></defs><path d="M858.656 192H165.344C109.472 192 64 237.44 64 293.312v469.376C64 818.56 109.472 864 165.344 864h693.312C914.528 864 960 818.56 960 762.688V293.312C960 237.44 914.528 192 858.656 192z m0 608H165.344C144.736 800 128 783.264 128 762.688V293.312C128 272.736 144.736 256 165.344 256h684.544L542.4 535.808c-14.592 14.56-38.272 14.528-54.752-1.792L243.392 327.264c-13.536-11.424-33.728-9.76-45.12 3.744-11.424 13.472-9.76 33.664 3.744 45.088l242.304 204.96c19.904 19.904 46.048 29.792 72.032 29.792 25.632 0 51.136-9.632 70.176-28.736L896 300.544v462.144C896 783.264 879.264 800 858.656 800z" p-id="3016"></path></svg>