<?xml version="1.0" standalone="no"?><!DOCTYPE svg PUBLIC "-//W3C//DTD SVG 1.1//EN" "http://www.w3.org/Graphics/SVG/1.1/DTD/svg11.dtd"><svg t="1562508646132" class="icon" viewBox="0 0 1024 1024" version="1.1" xmlns="http://www.w3.org/2000/svg" p-id="2292" xmlns:xlink="http://www.w3.org/1999/xlink" width="200" height="200"><defs><style type="text/css"></style></defs><path d="M943.776 260.16c-10.016-5.696-22.304-5.568-32.256 0.416l-160 96c-1.088 0.672-1.76 1.728-2.752 2.496-1.76 1.376-3.392 2.72-4.832 4.416-1.344 1.568-2.368 3.232-3.36 4.992-0.992 1.76-1.888 3.488-2.528 5.44-0.704 2.112-1.024 4.192-1.28 6.4-0.16 1.28-0.768 2.368-0.768 3.68v352c0 17.664-14.336 32-32 32H160c-17.632 0-32-14.336-32-32V288c0-17.632 14.368-32 32-32h544c17.696 0 32-14.336 32-32s-14.304-32-32-32H160c-52.928 0-96 43.072-96 96v448c0 52.928 43.072 96 96 96h544c52.928 0 96-43.072 96-96v-38.88l111.648 66.368A31.818 31.818 0 0 0 928 768a31.938 31.938 0 0 0 15.808-4.192A32.001 32.001 0 0 0 960 736V288c0-11.52-6.176-22.176-16.224-27.84zM896 679.744l-96-57.024V402.112l96-57.6v335.232z" p-id="2293"></path><path d="M192 384c0 35.296 28.704 64 64 64s64-28.704 64-64-28.704-64-64-64-64 28.704-64 64z" p-id="2294"></path></svg>