<?xml version="1.0" standalone="no"?><!DOCTYPE svg PUBLIC "-//W3C//DTD SVG 1.1//EN" "http://www.w3.org/Graphics/SVG/1.1/DTD/svg11.dtd"><svg t="1562508663561" class="icon" viewBox="0 0 1024 1024" version="1.1" xmlns="http://www.w3.org/2000/svg" p-id="2775" xmlns:xlink="http://www.w3.org/1999/xlink" width="200" height="200"><defs><style type="text/css"></style></defs><path d="M448 928c-1.184 0-2.368-0.064-3.52-0.192l-286.432-31.84C106.016 894.944 64 852.288 64 800V192c0-52.928 43.072-96 96-96 1.184 0 2.368 0.064 3.52 0.192L449.952 128C501.984 129.056 544 171.712 544 224v608c0 52.928-43.072 96-96 96zM158.528 160.032C141.568 160.8 128 174.848 128 192v608c0 17.664 14.368 32 32 32 1.184 0 2.368 0.064 3.52 0.192l285.952 31.776C466.432 863.2 480 849.152 480 832V224c0-17.632-14.368-32-32-32-1.184 0-2.368-0.064-3.52-0.192l-285.952-31.776zM609.184 924.32c-16.096 0-29.984-12.096-31.776-28.48-1.952-17.568 10.72-33.376 28.288-35.328l254.784-28.32A31.998 31.998 0 0 1 864 832c17.664 0 32-14.336 32-32V192c0-17.152-13.568-31.2-30.528-31.968L612.48 188.128c-17.248 2.112-33.376-10.656-35.328-28.256-1.952-17.568 10.72-33.376 28.288-35.328l255.072-28.352A30.994 30.994 0 0 1 864 96c52.928 0 96 43.072 96 96v608c0 52.288-41.984 94.944-94.048 95.968l-253.184 28.16a34.535 34.535 0 0 1-3.584 0.192z" p-id="2776"></path></svg>